<?xml version="1.0" encoding="UTF-8" standalone="no"?>
<!-- Generator: Adobe Illustrator 19.0.0, SVG Export Plug-In . SVG Version: 6.00 Build 0)  -->

<svg
   version="1.1"
   id="Layer_1"
   x="0px"
   y="0px"
   viewBox="0 0 469.333 469.333"
   style="enable-background:new 0 0 469.333 469.333;"
   xml:space="preserve"
   sodipodi:docname="medical-history-doctor-svgrepo-com.svg"
   inkscape:version="1.1.2 (b8e25be833, 2022-02-05)"
   xmlns:inkscape="http://www.inkscape.org/namespaces/inkscape"
   xmlns:sodipodi="http://sodipodi.sourceforge.net/DTD/sodipodi-0.dtd"
   xmlns="http://www.w3.org/2000/svg"
   xmlns:svg="http://www.w3.org/2000/svg"><defs
   id="defs6125" /><sodipodi:namedview
   id="namedview6123"
   pagecolor="#ffffff"
   bordercolor="#666666"
   borderopacity="1.0"
   inkscape:pageshadow="2"
   inkscape:pageopacity="0.0"
   inkscape:pagecheckerboard="0"
   showgrid="false"
   inkscape:zoom="1"
   inkscape:cx="246.5"
   inkscape:cy="350"
   inkscape:window-width="1920"
   inkscape:window-height="1017"
   inkscape:window-x="-8"
   inkscape:window-y="-8"
   inkscape:window-maximized="1"
   inkscape:current-layer="Layer_1" />
<g
   id="g6036">
	<g
   id="g6034">
		<path
   d="M341.333,138.667c5.888,0,10.667-4.779,10.667-10.667V74.667c0-17.643-14.357-32-32-32h-17.973    C290.016,17.483,264.373,0,234.667,0h-85.333c-29.707,0-55.349,17.483-67.36,42.667H64c-17.643,0-32,14.357-32,32v362.667    c0,17.643,14.357,32,32,32h256c17.643,0,32-14.357,32-32V384c0-5.888-4.779-10.667-10.667-10.667s-10.667,4.779-10.667,10.667    v53.333c0,5.877-4.789,10.667-10.667,10.667H64c-5.877,0-10.667-4.789-10.667-10.667V74.667C53.333,68.789,58.123,64,64,64h11.52    c-0.501,3.499-0.853,7.04-0.853,10.667V96c0,5.888,4.779,10.667,10.667,10.667h213.333c5.888,0,10.667-4.779,10.667-10.667V74.667    c0-3.627-0.352-7.168-0.853-10.667H320c5.877,0,10.667,4.789,10.667,10.667V128C330.667,133.888,335.445,138.667,341.333,138.667z     M288,85.333H96V74.667c0-29.408,23.925-53.333,53.333-53.333h85.333c29.408,0,53.333,23.925,53.333,53.333V85.333z"
   id="path6032" />
	</g>
</g>

<g
   id="g6048">
	<g
   id="g6046">
		<path
   d="M277.333,138.667H106.667c-5.888,0-10.667,4.779-10.667,10.667S100.779,160,106.667,160h170.667    c5.888,0,10.667-4.779,10.667-10.667S283.221,138.667,277.333,138.667z"
   id="path6044" />
	</g>
</g>
<g
   id="g6054">
	<g
   id="g6052">
		<path
   d="M224,192H106.667C100.779,192,96,196.779,96,202.667s4.779,10.667,10.667,10.667H224c5.888,0,10.667-4.779,10.667-10.667    S229.888,192,224,192z"
   id="path6050" />
	</g>
</g>
<g
   id="g6060">
	<g
   id="g6058">
		<path
   d="M213.333,245.333H106.667C100.779,245.333,96,250.112,96,256c0,5.888,4.779,10.667,10.667,10.667h106.667    c5.888,0,10.667-4.779,10.667-10.667C224,250.112,219.221,245.333,213.333,245.333z"
   id="path6056" />
	</g>
</g>
<g
   id="g6066">
	<g
   id="g6064">
		<path
   d="M277.333,352H192c-5.888,0-10.667,4.779-10.667,10.667c0,5.888,4.779,10.667,10.667,10.667h85.333    c5.888,0,10.667-4.779,10.667-10.667C288,356.779,283.221,352,277.333,352z"
   id="path6062" />
	</g>
</g>
<g
   id="g6072">
	<g
   id="g6070">
		<path
   d="M149.333,352h-42.667C100.779,352,96,356.779,96,362.667c0,5.888,4.779,10.667,10.667,10.667h42.667    c5.888,0,10.667-4.779,10.667-10.667C160,356.779,155.221,352,149.333,352z"
   id="path6068" />
	</g>
</g>
<g
   id="g6078">
	<g
   id="g6076">
		<path
   d="M224,298.667H106.667c-5.888,0-10.667,4.779-10.667,10.667S100.779,320,106.667,320H224    c5.888,0,10.667-4.779,10.667-10.667S229.888,298.667,224,298.667z"
   id="path6074" />
	</g>
</g>
<g
   id="g6084">
	<g
   id="g6082">
		<path
   d="M341.333,160c-52.928,0-96,43.072-96,96s43.072,96,96,96c52.928,0,96-43.072,96-96S394.261,160,341.333,160z     M341.333,330.667c-41.173,0-74.667-33.493-74.667-74.667s33.493-74.667,74.667-74.667S416,214.827,416,256    S382.507,330.667,341.333,330.667z"
   id="path6080" />
	</g>
</g>
<g
   id="g6090">
	
<path
   style="fill:#ff0000;stroke-width:0.707107"
   d="m 186.53374,61.90047 c -4.42584,-2.698593 -5.94728,-8.969246 -3.29655,-13.586782 1.82925,-3.186541 6.86157,-5.744421 10.13264,-5.150325 3.54508,0.643865 6.3722,2.937017 7.91176,6.417438 1.40975,3.186986 1.27204,5.255275 -0.59683,8.963555 -2.25475,4.473966 -9.49968,6.192203 -14.15102,3.356114 z"
   id="path6726" /></g>
<g
   id="g6092">
</g>
<g
   id="g6094">
</g>
<g
   id="g6096">
</g>
<g
   id="g6098">
</g>
<g
   id="g6100">
</g>
<g
   id="g6102">
</g>
<g
   id="g6104">
</g>
<g
   id="g6106">
</g>
<g
   id="g6108">
</g>
<g
   id="g6110">
</g>
<g
   id="g6112">
</g>
<g
   id="g6114">
</g>
<g
   id="g6116">
</g>
<g
   id="g6118">
</g>
<g
   id="g6120">
</g>
<path
   style="fill:#00ff00;stroke-width:0.564781"
   d="m 337.45665,286.89643 c -2.51179,-1.1154 -35.82213,-34.23425 -37.31405,-37.09953 -2.00303,-3.84689 -0.99269,-8.98694 2.38386,-12.12767 3.19855,-2.97518 8.50079,-3.3206 12.36957,-0.80582 1.38099,0.89767 7.45035,6.60202 13.48748,12.67633 l 10.97658,11.0442 13.16988,-21.95043 c 14.36049,-23.93486 14.59192,-24.22209 19.92931,-24.73495 6.11458,-0.58753 10.97277,3.83116 11.00844,10.01254 l 0.0186,3.22037 -17.22582,28.70313 c -18.83592,31.38602 -18.7816,31.31467 -24.15828,31.73233 -1.61769,0.12566 -3.44737,-0.13842 -4.64555,-0.6705 z"
   id="path6316" /><path
   style="fill:#00ff00;stroke-width:0.564781"
   d=""
   id="path6355" /></svg>
