<?xml version="1.0" encoding="iso-8859-1"?>
<!-- Generator: Adobe Illustrator 19.0.0, SVG Export Plug-In . SVG Version: 6.00 Build 0)  -->
<svg version="1.1" id="Layer_1" xmlns="http://www.w3.org/2000/svg" xmlns:xlink="http://www.w3.org/1999/xlink" x="0px" y="0px"
	 viewBox="0 0 512 512" style="enable-background:new 0 0 512 512;" xml:space="preserve">
<polyline style="fill:#D6E5F6;" points="312.886,64 469.333,64 469.333,490.667 42.667,490.667 42.667,64 199.108,64 "/>
<polygon style="fill:#A4C6EC;" points="469.333,64 312.886,64 256,64 256,490.667 469.333,490.667 "/>
<path style="fill:#F6E27D;" d="M469.333,512H42.667c-11.78,0-21.333-9.55-21.333-21.333V64c0-11.782,9.553-21.333,21.333-21.333
	h156.442c11.78,0,21.333,9.552,21.333,21.333s-9.553,21.333-21.333,21.333H64v384h384v-384H312.886
	c-11.783,0-21.333-9.552-21.333-21.333s9.55-21.333,21.333-21.333h156.447c11.783,0,21.333,9.552,21.333,21.333v426.667
	C490.667,502.45,481.116,512,469.333,512z"/>
<path style="fill:#F2D23D;" d="M469.333,42.667H312.886c-11.783,0-21.333,9.552-21.333,21.333s9.55,21.333,21.333,21.333H448v384
	H256V512h213.333c11.783,0,21.333-9.55,21.333-21.333V64C490.667,52.218,481.116,42.667,469.333,42.667z"/>
<path style="fill:#D8145D;" d="M125.264,383.286c-5.46,0.001-10.918-2.081-15.083-6.246c-8.331-8.331-8.331-21.838,0-30.17
	l100.567-100.567c4.001-4.001,9.426-6.248,15.083-6.248c5.659,0,11.086,2.249,15.086,6.248l45.252,45.255l85.483-85.481
	c8.33-8.331,21.838-8.33,30.17,0c8.33,8.33,8.33,21.837,0,30.17L301.254,336.813c-4.001,4.001-9.428,6.248-15.086,6.248l0,0
	c-5.659,0-11.083-2.247-15.084-6.248l-45.254-45.255l-85.48,85.481C136.185,381.202,130.724,383.286,125.264,383.286z"/>
<path style="fill:#A4C6EC;" d="M312.889,0H199.111c-11.78,0-21.333,9.552-21.333,21.333v85.333c0,11.782,9.553,21.333,21.333,21.333
	h113.778c11.783,0,21.333-9.552,21.333-21.333V21.333C334.222,9.552,324.672,0,312.889,0z"/>
<path style="fill:#A90140;" d="M401.822,206.077c-8.331-8.33-21.838-8.331-30.17,0l-85.483,85.481L256,261.387v60.341l15.086,15.086
	c4.001,4.001,9.426,6.248,15.084,6.248c5.658,0,11.085-2.247,15.085-6.248l100.567-100.567
	C410.153,227.915,410.153,214.409,401.822,206.077z"/>
<path style="fill:#385C8E;" d="M334.222,106.667V21.333C334.222,9.552,324.672,0,312.889,0H256v128h56.889
	C324.672,128,334.222,118.448,334.222,106.667z"/>
<g>
</g>
<g>
</g>
<g>
</g>
<g>
</g>
<g>
</g>
<g>
</g>
<g>
</g>
<g>
</g>
<g>
</g>
<g>
</g>
<g>
</g>
<g>
</g>
<g>
</g>
<g>
</g>
<g>
</g>
</svg>
